<svg width="25" height="24" viewBox="0 0 25 24" fill="none" xmlns="http://www.w3.org/2000/svg">
<g id="add_reaction">
<mask id="mask0_2736_425" style="mask-type:alpha" maskUnits="userSpaceOnUse" x="0" y="0" width="25" height="24">
<rect id="Bounding box" x="0.036377" width="24" height="24" fill="#D9D9D9"/>
</mask>
<g mask="url(#mask0_2736_425)">
<path id="add_reaction_2" d="M12.0364 22C10.653 22 9.35304 21.7375 8.13638 21.2125C6.91971 20.6875 5.86138 19.975 4.96138 19.075C4.06138 18.175 3.34888 17.1167 2.82388 15.9C2.29888 14.6833 2.03638 13.3833 2.03638 12C2.03638 10.6167 2.29888 9.31667 2.82388 8.1C3.34888 6.88333 4.06138 5.825 4.96138 4.925C5.86138 4.025 6.91971 3.3125 8.13638 2.7875C9.35304 2.2625 10.653 2 12.0364 2C12.7864 2 13.5155 2.07917 14.2239 2.2375C14.9322 2.39583 15.603 2.625 16.2364 2.925C16.1697 3.09167 16.1197 3.26667 16.0864 3.45C16.053 3.63333 16.0364 3.81667 16.0364 4C16.0364 4.23333 16.0614 4.45417 16.1114 4.6625C16.1614 4.87083 16.228 5.06667 16.3114 5.25C15.6947 4.86667 15.028 4.5625 14.3114 4.3375C13.5947 4.1125 12.8364 4 12.0364 4C9.81971 4 7.93221 4.77917 6.37388 6.3375C4.81554 7.89583 4.03638 9.78333 4.03638 12C4.03638 14.2167 4.81554 16.1042 6.37388 17.6625C7.93221 19.2208 9.81971 20 12.0364 20C14.253 20 16.1405 19.2208 17.6989 17.6625C19.2572 16.1042 20.0364 14.2167 20.0364 12C20.0364 11.3333 19.9572 10.6917 19.7989 10.075C19.6405 9.45833 19.4197 8.875 19.1364 8.325C19.403 8.54167 19.6947 8.70833 20.0114 8.825C20.328 8.94167 20.6697 9 21.0364 9C21.1197 9 21.2072 8.99583 21.2989 8.9875C21.3905 8.97917 21.478 8.96667 21.5614 8.95C21.7114 9.43333 21.828 9.92917 21.9114 10.4375C21.9947 10.9458 22.0364 11.4667 22.0364 12C22.0364 13.3833 21.7739 14.6833 21.2489 15.9C20.7239 17.1167 20.0114 18.175 19.1114 19.075C18.2114 19.975 17.153 20.6875 15.9364 21.2125C14.7197 21.7375 13.4197 22 12.0364 22ZM15.5364 11C15.9697 11 16.328 10.8583 16.6114 10.575C16.8947 10.2917 17.0364 9.93333 17.0364 9.5C17.0364 9.06667 16.8947 8.70833 16.6114 8.425C16.328 8.14167 15.9697 8 15.5364 8C15.103 8 14.7447 8.14167 14.4614 8.425C14.178 8.70833 14.0364 9.06667 14.0364 9.5C14.0364 9.93333 14.178 10.2917 14.4614 10.575C14.7447 10.8583 15.103 11 15.5364 11ZM8.53638 11C8.96971 11 9.32804 10.8583 9.61138 10.575C9.89471 10.2917 10.0364 9.93333 10.0364 9.5C10.0364 9.06667 9.89471 8.70833 9.61138 8.425C9.32804 8.14167 8.96971 8 8.53638 8C8.10304 8 7.74471 8.14167 7.46138 8.425C7.17804 8.70833 7.03638 9.06667 7.03638 9.5C7.03638 9.93333 7.17804 10.2917 7.46138 10.575C7.74471 10.8583 8.10304 11 8.53638 11ZM12.0364 17.5C13.2197 17.5 14.2655 17.175 15.1739 16.525C16.0822 15.875 16.7364 15.0333 17.1364 14H6.93638C7.33638 15.0333 7.99054 15.875 8.89888 16.525C9.80721 17.175 10.853 17.5 12.0364 17.5ZM20.0364 5H19.0364C18.753 5 18.5155 4.90417 18.3239 4.7125C18.1322 4.52083 18.0364 4.28333 18.0364 4C18.0364 3.71667 18.1322 3.47917 18.3239 3.2875C18.5155 3.09583 18.753 3 19.0364 3H20.0364V2C20.0364 1.71667 20.1322 1.47917 20.3239 1.2875C20.5155 1.09583 20.753 1 21.0364 1C21.3197 1 21.5572 1.09583 21.7489 1.2875C21.9405 1.47917 22.0364 1.71667 22.0364 2V3H23.0364C23.3197 3 23.5572 3.09583 23.7489 3.2875C23.9405 3.47917 24.0364 3.71667 24.0364 4C24.0364 4.28333 23.9405 4.52083 23.7489 4.7125C23.5572 4.90417 23.3197 5 23.0364 5H22.0364V6C22.0364 6.28333 21.9405 6.52083 21.7489 6.7125C21.5572 6.90417 21.3197 7 21.0364 7C20.753 7 20.5155 6.90417 20.3239 6.7125C20.1322 6.52083 20.0364 6.28333 20.0364 6V5Z" fill="black"/>
</g>
</g>
</svg>
