<svg width="24" height="24" viewBox="0 0 24 24" fill="none" xmlns="http://www.w3.org/2000/svg">
<g id="add_reaction">
<mask id="mask0_813_12119" style="mask-type:alpha" maskUnits="userSpaceOnUse" x="0" y="0" width="24" height="24">
<rect id="Bounding box" width="24" height="24" fill="#D9D9D9"/>
</mask>
<g mask="url(#mask0_813_12119)">
<path id="add_reaction_2" d="M12.0002 22.8C10.5002 22.8 9.09586 22.5167 7.7872 21.9501C6.4792 21.3834 5.33786 20.6127 4.3632 19.6381C3.38786 18.6627 2.61686 17.5207 2.0502 16.212C1.48353 14.904 1.2002 13.5 1.2002 12C1.2002 10.5 1.48353 9.09172 2.0502 7.77505C2.61686 6.45838 3.38786 5.31272 4.3632 4.33805C5.33786 3.36272 6.4792 2.59572 7.7872 2.03705C9.09586 1.47905 10.5002 1.20005 12.0002 1.20005C12.7669 1.20005 13.5129 1.27505 14.2382 1.42505C14.9629 1.57505 15.6502 1.79172 16.3002 2.07505C16.1169 2.35838 15.9669 2.65838 15.8502 2.97505C15.7335 3.29172 15.6752 3.63338 15.6752 4.00005C15.6752 4.13338 15.6835 4.26238 15.7002 4.38705C15.7169 4.51238 15.7419 4.64172 15.7752 4.77505C15.2085 4.47505 14.6085 4.24572 13.9752 4.08705C13.3419 3.92905 12.6835 3.85005 12.0002 3.85005C9.73353 3.85005 7.80853 4.64172 6.22519 6.22505C4.64186 7.80838 3.8502 9.73338 3.8502 12C3.8502 14.2667 4.64186 16.1917 6.22519 17.775C7.80853 19.3584 9.73353 20.15 12.0002 20.15C14.2669 20.15 16.1919 19.3584 17.7752 17.775C19.3585 16.1917 20.1502 14.2667 20.1502 12C20.1502 11.4667 20.1002 10.95 20.0002 10.45C19.9002 9.95005 19.7585 9.46671 19.5752 9.00005C19.7919 9.10005 20.0212 9.17905 20.2632 9.23705C20.5045 9.29572 20.7502 9.32505 21.0002 9.32505C21.2502 9.32505 21.4919 9.30005 21.7252 9.25005C21.9585 9.20005 22.1835 9.12505 22.4002 9.02505C22.5335 9.50838 22.6335 9.99605 22.7002 10.488C22.7669 10.9794 22.8002 11.4834 22.8002 12C22.8002 13.5 22.5209 14.904 21.9622 16.212C21.4042 17.5207 20.6379 18.6627 19.6632 19.6381C18.6879 20.6127 17.5419 21.3834 16.2252 21.9501C14.9085 22.5167 13.5002 22.8 12.0002 22.8ZM15.7002 11.2C16.2002 11.2 16.6169 11.0334 16.9502 10.7C17.2835 10.3667 17.4502 9.95005 17.4502 9.45005C17.4502 8.95005 17.2835 8.53338 16.9502 8.20005C16.6169 7.86671 16.2002 7.70005 15.7002 7.70005C15.2002 7.70005 14.7835 7.86671 14.4502 8.20005C14.1169 8.53338 13.9502 8.95005 13.9502 9.45005C13.9502 9.95005 14.1169 10.3667 14.4502 10.7C14.7835 11.0334 15.2002 11.2 15.7002 11.2ZM8.3002 11.2C8.8002 11.2 9.21686 11.0334 9.5502 10.7C9.88353 10.3667 10.0502 9.95005 10.0502 9.45005C10.0502 8.95005 9.88353 8.53338 9.5502 8.20005C9.21686 7.86671 8.8002 7.70005 8.3002 7.70005C7.8002 7.70005 7.38353 7.86671 7.0502 8.20005C6.71686 8.53338 6.5502 8.95005 6.5502 9.45005C6.5502 9.95005 6.71686 10.3667 7.0502 10.7C7.38353 11.0334 7.8002 11.2 8.3002 11.2ZM12.0002 18C13.3835 18 14.5669 17.6124 15.5502 16.837C16.5335 16.0624 17.2169 15.1334 17.6002 14.05H6.4002C6.78353 15.1334 7.46686 16.0624 8.4502 16.837C9.43353 17.6124 10.6169 18 12.0002 18ZM19.6752 5.32505H19.0002C18.6335 5.32505 18.3209 5.19571 18.0622 4.93705C17.8042 4.67905 17.6752 4.36672 17.6752 4.00005C17.6752 3.63338 17.8042 3.32072 18.0622 3.06205C18.3209 2.80405 18.6335 2.67505 19.0002 2.67505H19.6752V2.00005C19.6752 1.63338 19.8042 1.32072 20.0622 1.06205C20.3209 0.804049 20.6335 0.675049 21.0002 0.675049C21.3669 0.675049 21.6795 0.804049 21.9382 1.06205C22.1962 1.32072 22.3252 1.63338 22.3252 2.00005V2.67505H23.0002C23.3669 2.67505 23.6795 2.80405 23.9382 3.06205C24.1962 3.32072 24.3252 3.63338 24.3252 4.00005C24.3252 4.36672 24.1962 4.67905 23.9382 4.93705C23.6795 5.19571 23.3669 5.32505 23.0002 5.32505H22.3252V6.00005C22.3252 6.36672 22.1962 6.67938 21.9382 6.93805C21.6795 7.19605 21.3669 7.32505 21.0002 7.32505C20.6335 7.32505 20.3209 7.19605 20.0622 6.93805C19.8042 6.67938 19.6752 6.36672 19.6752 6.00005V5.32505Z" fill="#535AF1"/>
</g>
</g>
</svg>
