<svg width="25" height="24" viewBox="0 0 25 24" fill="none" xmlns="http://www.w3.org/2000/svg">
<g id="51. Emojis">
<g id="Group">
<path id="Vector" d="M3.86688 18.6489C5.46422 17.0516 5.62395 16.6523 6.62229 17.6506C7.62062 18.6489 7.22129 18.7687 5.62395 20.406C4.42595 21.604 2.90848 21.3644 2.90848 21.3644C2.90848 21.3644 2.66887 19.8469 3.86688 18.6489Z" fill="#FF9D27"/>
<path id="Vector_2" d="M6.90177 20.2862C7.5407 18.609 7.74037 18.4094 6.8219 17.8902C5.90343 17.3711 5.90343 17.7305 5.30443 19.4077C4.82523 20.6456 5.38429 21.7638 5.38429 21.7638C5.38429 21.7638 6.4625 21.5641 6.90177 20.2862Z" fill="#FF9D27"/>
</g>
<path id="Vector_3" d="M5.98327 18.7288C6.34267 17.8103 6.34267 17.6106 6.82187 17.8902C7.34101 18.1697 7.22121 18.2895 6.8618 19.208C6.6222 19.8868 6.0232 20.0466 6.0232 20.0466C6.0232 20.0466 5.74367 19.4476 5.98327 18.7288Z" fill="#FDF516"/>
<path id="Vector_4" d="M6.34254 17.4509C5.8234 16.5324 5.62374 16.7321 3.94653 17.371C2.70859 17.8502 2.46899 18.8885 2.46899 18.8885C2.46899 18.8885 3.58713 19.4476 4.82507 18.9684C6.50227 18.3294 6.86167 18.3294 6.34254 17.4509Z" fill="#FF9D27"/>
<g id="Group_2">
<path id="Vector_5" d="M5.50408 18.2895C6.42255 17.9301 6.62222 17.9301 6.34269 17.4509C6.06315 16.9318 5.94335 17.0516 5.02488 17.411C4.34601 17.6506 4.18628 18.2496 4.18628 18.2496C4.18628 18.2496 4.82521 18.5291 5.50408 18.2895Z" fill="#FDF516"/>
<path id="Vector_6" d="M5.0647 18.2097C5.94324 17.3311 6.02311 17.0915 6.58218 17.6506C7.14124 18.2097 6.90164 18.2896 6.02311 19.1681C5.34424 19.847 4.50564 19.6872 4.50564 19.6872C4.50564 19.6872 4.42577 18.8886 5.0647 18.2097Z" fill="#FDF516"/>
</g>
<path id="Vector_7" d="M6.90176 14.376C4.42589 10.223 0.312744 11.9401 0.312744 11.9401C0.312744 11.9401 6.18296 6.06989 10.1364 10.0233L6.90176 14.376Z" fill="#3BAACF"/>
<path id="Vector_8" d="M8.81857 11.3012L10.0964 10.0233C6.18296 6.06989 0.312744 11.9401 0.312744 11.9401C0.312744 11.9401 5.46416 8.26623 8.81857 11.3012Z" fill="#428BC1"/>
<path id="Vector_9" d="M9.89673 17.3711C14.0498 19.847 12.3327 23.9601 12.3327 23.9601C12.3327 23.9601 18.2029 18.0899 14.2495 14.1365L9.89673 17.3711Z" fill="#3BAACF"/>
<path id="Vector_10" d="M12.9715 15.4543L14.2493 14.1764C18.2027 18.1298 12.3325 24 12.3325 24C12.3325 24 16.0064 18.8087 12.9715 15.4543Z" fill="#428BC1"/>
<path id="Vector_11" d="M19.0017 11.5408C14.3295 16.173 9.17805 18.6889 7.38105 16.8918C5.58404 15.0948 8.09985 9.94343 12.7321 5.27122C18.1631 -0.159733 24.193 0.079868 24.193 0.079868C24.193 0.079868 24.3927 6.10982 19.0017 11.5408Z" fill="#C5D0D8"/>
<path id="Vector_12" d="M17.8037 10.223C13.1714 14.8552 8.53913 17.8902 7.46093 16.812C6.38273 15.7338 9.41767 11.1015 14.05 6.46922C19.4809 1.03827 24.2729 0 24.2729 0C24.2729 0 23.2346 4.79201 17.8037 10.223Z" fill="#DAE3EA"/>
<path id="Vector_13" d="M9.21793 18.1697C9.01826 18.3694 8.69879 18.3694 8.49913 18.1697L6.10312 15.7737C5.90345 15.574 5.90345 15.2146 6.10312 15.015L6.82192 14.2962L9.93673 17.411L9.21793 18.1697Z" fill="#C94747"/>
<path id="Vector_14" d="M8.53901 17.4509C8.33934 17.6506 8.09974 17.7304 7.97994 17.6106L6.62221 16.2529C6.50241 16.1331 6.58227 15.8935 6.78194 15.6938L7.50074 14.975L9.25781 16.7321L8.53901 17.4509Z" fill="#F15744"/>
<path id="Vector_15" d="M7.8603 18.4493C7.7405 18.5691 7.46097 18.5691 7.34117 18.4493L5.78376 16.8919C5.66396 16.7721 5.70389 16.5325 5.82369 16.4127L6.3029 15.9335L8.3395 17.9701L7.8603 18.4493Z" fill="#3E4347"/>
<path id="Vector_16" d="M7.54056 18.1298C7.42076 18.2496 7.18116 18.2895 7.10129 18.2097L6.02309 17.1315C5.94322 17.0516 5.98315 16.8519 6.14289 16.7321L6.62209 16.2529L8.01976 17.6506L7.54056 18.1298Z" fill="#62727A"/>
<path id="Vector_17" d="M24.1929 0.0798459C24.1929 0.0798459 22.0365 -2.08923e-05 19.1213 1.11812L23.1546 5.15139C24.2728 2.23625 24.1929 0.0798459 24.1929 0.0798459Z" fill="#C94747"/>
<path id="Vector_18" d="M24.1929 0.0798187C24.1929 0.0798187 22.4758 0.43922 19.8801 1.91676L22.356 4.39263C23.8335 1.79696 24.1929 0.0798187 24.1929 0.0798187Z" fill="#F15744"/>
<path id="Vector_19" d="M16.8851 9.38432C17.9878 9.38432 18.8818 8.49038 18.8818 7.38765C18.8818 6.28492 17.9878 5.39098 16.8851 5.39098C15.7824 5.39098 14.8884 6.28492 14.8884 7.38765C14.8884 8.49038 15.7824 9.38432 16.8851 9.38432Z" fill="#EDF4F9"/>
<path id="Vector_20" d="M16.8849 8.70551C17.6127 8.70551 18.2027 8.11551 18.2027 7.3877C18.2027 6.6599 17.6127 6.0699 16.8849 6.0699C16.1571 6.0699 15.5671 6.6599 15.5671 7.3877C15.5671 8.11551 16.1571 8.70551 16.8849 8.70551Z" fill="#3BAACF"/>
<path id="Vector_21" d="M12.8917 13.3777C13.9944 13.3777 14.8884 12.4837 14.8884 11.381C14.8884 10.2783 13.9944 9.38432 12.8917 9.38432C11.789 9.38432 10.895 10.2783 10.895 11.381C10.895 12.4837 11.789 13.3777 12.8917 13.3777Z" fill="#EDF4F9"/>
<path id="Vector_22" d="M12.8918 12.6989C13.6196 12.6989 14.2096 12.1089 14.2096 11.3811C14.2096 10.6532 13.6196 10.0632 12.8918 10.0632C12.164 10.0632 11.574 10.6532 11.574 11.3811C11.574 12.1089 12.164 12.6989 12.8918 12.6989Z" fill="#3BAACF"/>
<g id="Group_3">
<path id="Vector_23" d="M19.0415 1.95675C18.9217 2.07655 18.6821 2.07655 18.5623 1.95675C18.4425 1.83695 18.4425 1.59735 18.5623 1.47755C18.6821 1.35775 18.9217 1.35775 19.0415 1.47755C19.1613 1.59735 19.1613 1.83695 19.0415 1.95675Z" fill="white"/>
<path id="Vector_24" d="M19.7203 2.95508C19.8968 2.95508 20.0398 2.81205 20.0398 2.63561C20.0398 2.45918 19.8968 2.31615 19.7203 2.31615C19.5439 2.31615 19.4009 2.45918 19.4009 2.63561C19.4009 2.81205 19.5439 2.95508 19.7203 2.95508Z" fill="white"/>
<path id="Vector_25" d="M20.6788 3.91344C20.8553 3.91344 20.9983 3.77041 20.9983 3.59397C20.9983 3.41754 20.8553 3.27451 20.6788 3.27451C20.5024 3.27451 20.3594 3.41754 20.3594 3.59397C20.3594 3.77041 20.5024 3.91344 20.6788 3.91344Z" fill="white"/>
<path id="Vector_26" d="M21.5973 4.87194C21.7737 4.87194 21.9168 4.72891 21.9168 4.55247C21.9168 4.37603 21.7737 4.233 21.5973 4.233C21.4209 4.233 21.2778 4.37603 21.2778 4.55247C21.2778 4.72891 21.4209 4.87194 21.5973 4.87194Z" fill="white"/>
<path id="Vector_27" d="M22.5556 5.79038C22.732 5.79038 22.875 5.64735 22.875 5.47091C22.875 5.29447 22.732 5.15144 22.5556 5.15144C22.3791 5.15144 22.2361 5.29447 22.2361 5.47091C22.2361 5.64735 22.3791 5.79038 22.5556 5.79038Z" fill="white"/>
</g>
</g>
</svg>
